<?xml version="1.0" encoding="iso-8859-1"?>
<!-- Generator: Adobe Illustrator 18.0.0, SVG Export Plug-In . SVG Version: 6.00 Build 0)  -->
<!DOCTYPE svg PUBLIC "-//W3C//DTD SVG 1.1//EN" "http://www.w3.org/Graphics/SVG/1.1/DTD/svg11.dtd">
<svg xmlns="http://www.w3.org/2000/svg" xmlns:xlink="http://www.w3.org/1999/xlink" version="1.1" id="Capa_1" x="0px" y="0px" viewBox="0 0 152.042 152.042" style="enable-background:new 0 0 152.042 152.042;" xml:space="preserve" width="512px" height="512px">
<path d="M120.02,8.253c0.213-2.109-0.477-4.21-1.898-5.783C116.7,0.898,114.678,0,112.558,0H39.484c-2.12,0-4.141,0.898-5.563,2.47  c-1.422,1.572-2.112,3.673-1.899,5.783l11.693,115.868c0.001,0.01,0.002,0.021,0.003,0.03l2.134,21.144  c0.386,3.831,3.611,6.747,7.462,6.747H98.73c3.851,0,7.075-2.916,7.462-6.747l2.133-21.138c0.002-0.014,0.003-0.028,0.005-0.042  L120.02,8.253z M104.263,15L94.085,115.869H57.958L47.779,15H104.263z M60.095,137.042l-0.623-6.173h33.1l-0.623,6.173H60.095z" fill="#FFFFFF"/>
<g>
</g>
<g>
</g>
<g>
</g>
<g>
</g>
<g>
</g>
<g>
</g>
<g>
</g>
<g>
</g>
<g>
</g>
<g>
</g>
<g>
</g>
<g>
</g>
<g>
</g>
<g>
</g>
<g>
</g>
</svg>
