<?xml version="1.0" encoding="iso-8859-1"?>
<!-- Generator: Adobe Illustrator 18.0.0, SVG Export Plug-In . SVG Version: 6.00 Build 0)  -->
<!DOCTYPE svg PUBLIC "-//W3C//DTD SVG 1.1//EN" "http://www.w3.org/Graphics/SVG/1.1/DTD/svg11.dtd">
<svg xmlns="http://www.w3.org/2000/svg" xmlns:xlink="http://www.w3.org/1999/xlink" version="1.1" id="Capa_1" x="0px" y="0px" viewBox="0 0 158.075 158.075" style="enable-background:new 0 0 158.075 158.075;" xml:space="preserve" width="512px" height="512px">
<path d="M156.314,5.689c-1.425-1.694-3.526-2.672-5.74-2.672H7.5c-2.214,0-4.314,0.978-5.74,2.672  C0.336,7.383-0.268,9.62,0.111,11.801l23.83,137.042c0.625,3.593,3.743,6.215,7.389,6.215h95.416c3.646,0,6.765-2.623,7.389-6.215  l23.828-137.042C158.343,9.62,157.739,7.383,156.314,5.689z M37.639,140.058l-1.073-6.173h84.945l-1.073,6.173H37.639z   M124.119,118.885H33.957L16.417,18.016h125.241L124.119,118.885z" fill="#FFFFFF"/>
<g>
</g>
<g>
</g>
<g>
</g>
<g>
</g>
<g>
</g>
<g>
</g>
<g>
</g>
<g>
</g>
<g>
</g>
<g>
</g>
<g>
</g>
<g>
</g>
<g>
</g>
<g>
</g>
<g>
</g>
</svg>
